<svg version="1.1" id="Layer_1" xmlns:x="ns_extend;" xmlns:i="ns_ai;" xmlns:graph="ns_graphs;" xmlns="http://www.w3.org/2000/svg" xmlns:xlink="http://www.w3.org/1999/xlink" x="0px" y="0px" viewBox="0 0 208.5 55" style="enable-background:new 0 0 208.5 55;" xml:space="preserve">
 <style type="text/css">
  .st0{fill:#157EFF;}
	.st1{fill:#00BDFF;}
	.st2{fill:#1560FA;}
	.st3{fill:#00EFE9;}
	.st4{fill:#157EFF;fill-opacity:0.5;}
 </style>
 <metadata>
  <sfw xmlns="ns_sfw;">
   <slices>
   </slices>
   <sliceSourceBounds bottomLeftOrigin="true" height="55" width="208.5" x="-131.1" y="-219.8">
   </sliceSourceBounds>
  </sfw>
 </metadata>
 <g>
  <path class="st0" d="M28.5,0.1C37.7,0.8,44.6,8.8,44,18c-0.5,6.7-4.9,12.4-11.2,14.6L49.5,55H0.1V0h26C26.9,0,27.8,0,28.5,0.1z">
  </path>
  <path class="st0" d="M32.2,55H0V0l49.2,55H32.2z">
  </path>
  <path class="st1" d="M49.5,55H0l24.6-38.4L49.5,55z">
  </path>
  <path class="st2" d="M0,31.8V0h13.8l20.6,31.8L0,31.8z">
  </path>
  <path class="st3" d="M14.8,31.8l9.8-15.2l9.9,15.2H14.8z">
  </path>
  <path class="st4" d="M49.5,55H31.1l-6.5-38.4L49.5,55z">
  </path>
  <path d="M73.5,18.8v6.1h3.6c2.8,0,4-1.4,4-3.1c0-1.7-1.4-3-4-3L73.5,18.8L73.5,18.8z M77.2,14.2c5.3,0,8.7,3.2,8.7,7.6
		s-2.4,6.8-5.1,7.3l5.5,10h-5.5l-5.1-9.3h-2.2v9.3h-5V14.3L77.2,14.2L77.2,14.2z M93.6,28.8h7.6c-0.2-2.1-2-3.7-4.1-3.5
		C95.2,25.5,93.7,26.9,93.6,28.8 M105.9,30.4c0,0.5,0,1-0.1,1.6H93.6c0.3,2.2,2.2,3.8,4.4,3.6c1.6,0,3.1-0.6,4.4-1.7l2.8,3
		c-2,1.8-4.7,2.7-7.4,2.6c-4.7,0.3-8.7-3.4-9-8.1c0-0.3,0-0.6,0-1c0-5.4,3.6-9.1,8.7-9.1C102.7,21.4,105.9,25.1,105.9,30.4
		 M114.3,30.5c-0.2,2.5,1.6,4.6,4.1,4.8s4.6-1.6,4.8-4.1c0-0.2,0-0.5,0-0.7c0.2-2.5-1.6-4.6-4.1-4.8c-2.5-0.2-4.6,1.6-4.8,4.1
		C114.3,30,114.3,30.3,114.3,30.5 M128,30.5c0,5.2-3.6,9.1-8.4,9.1c-2,0.1-3.9-0.7-5.1-2.2v8.9h-4.6V21.9h4.6v1.9
		c1.2-1.6,3.2-2.4,5.1-2.4C124.4,21.4,128,25.3,128,30.5 M147.9,31.8c0,5.4-3.8,7.8-8.2,7.8c-4.3,0-8.2-2.3-8.2-7.8v-9.9h4.6v9.5
		c0,2.8,1.5,3.9,3.5,3.9c2,0,3.5-1.1,3.5-3.9v-9.5h4.6L147.9,31.8z M156.9,30.5c-0.2,2.5,1.7,4.6,4.1,4.8c2.5,0.2,4.6-1.7,4.8-4.1
		c0-0.2,0-0.4,0-0.7c0.2-2.5-1.7-4.6-4.1-4.8c-2.5-0.2-4.6,1.7-4.8,4.1C156.8,30,156.8,30.3,156.9,30.5 M170.5,30.5
		c0,5.2-3.6,9.1-8.4,9.1c-2,0.1-3.9-0.8-5.2-2.3v1.9h-4.5V13.5h4.6v10.2c1.2-1.5,3.1-2.3,5.1-2.3C166.9,21.4,170.5,25.3,170.5,30.5
		 M174.3,39.1h4.6V13.5h-4.6V39.1z M183.8,39.1h4.6V21.9h-4.6V39.1z M189.1,16.2c0,1.6-1.4,3-3,2.9c-1.6,0-3-1.4-2.9-3
		c0-1.6,1.3-2.9,3-2.9C187.8,13.2,189.1,14.5,189.1,16.2C189.1,16.2,189.1,16.2,189.1,16.2z M208.4,24.7l-3.4,2.8
		c-0.9-1.1-2.2-1.7-3.6-1.7c-2.4,0-4.4,2-4.3,4.5c0,0.1,0,0.2,0,0.3c-0.2,2.4,1.6,4.5,4,4.7c0.1,0,0.2,0,0.3,0
		c1.4,0,2.8-0.6,3.8-1.7l3.3,2.8c-1.7,2.1-4.2,3.3-6.9,3.2c-4.8,0.2-8.9-3.5-9.2-8.3c0-0.3,0-0.5,0-0.8c-0.2-4.8,3.6-8.9,8.4-9.1
		c0.2,0,0.5,0,0.7,0C204.2,21.3,206.8,22.5,208.4,24.7">
  </path>
 </g>
</svg>